<svg width="24" height="24" viewBox="0 0 24 24" fill="none" xmlns="http://www.w3.org/2000/svg">
<rect x="0.5" y="0.5" width="23" height="23" rx="1.5" stroke="#00B3AF"/>
<path d="M8.5797 7.16951C8.58241 7.48869 8.44913 7.79603 8.20869 8.02507C7.96826 8.25411 7.63998 8.38645 7.29484 8.39348C6.95043 8.38191 6.62399 8.24843 6.383 8.02063C6.14201 7.79283 6.00489 7.48813 6 7.16951C6.01488 6.859 6.15698 6.56535 6.39745 6.34816C6.63792 6.13096 6.95875 6.00649 7.29484 6C7.62994 6.00662 7.94964 6.1314 8.18849 6.34881C8.42734 6.56622 8.5673 6.85982 8.5797 7.16951ZM6.13877 10.5682C6.13877 9.86483 6.62296 9.97467 7.29484 9.97467C7.96672 9.97467 8.44093 9.86483 8.44093 10.5682V17.4209C8.44093 18.1335 7.95674 17.9877 7.29484 17.9877C6.63294 17.9877 6.13877 18.1335 6.13877 17.4209V10.5682ZM10.4376 10.5691C10.4376 10.1759 10.5953 10.0291 10.8419 9.9839C11.0885 9.93867 11.9401 9.9839 12.2356 9.9839C12.5321 9.9839 12.6509 10.4316 12.6409 10.7694C12.8948 10.4551 13.2315 10.2061 13.619 10.0462C14.0064 9.88622 14.4316 9.82061 14.8542 9.85559C15.2693 9.83216 15.685 9.88971 16.0745 10.0245C16.4639 10.1593 16.8183 10.3683 17.1147 10.638C17.4111 10.9077 17.6428 11.232 17.7948 11.5898C17.9468 11.9477 18.0157 12.3311 17.997 12.7152V17.3933C17.997 18.1058 17.5228 17.96 16.8499 17.96C16.177 17.96 15.7038 18.1058 15.7038 17.3933V13.7389C15.7212 13.5508 15.6947 13.3615 15.6259 13.1838C15.5572 13.0061 15.4479 12.8441 15.3054 12.7089C15.163 12.5737 14.9908 12.4685 14.8004 12.4003C14.6101 12.3321 14.4061 12.3025 14.2023 12.3137C13.9993 12.3087 13.7975 12.3438 13.6103 12.4164C13.4231 12.489 13.2547 12.5976 13.1163 12.735C12.9779 12.8724 12.8726 13.0354 12.8076 13.2133C12.7425 13.3911 12.719 13.5797 12.7388 13.7666V17.4209C12.7388 18.1335 12.2546 17.9877 11.5827 17.9877C10.9108 17.9877 10.4366 18.1335 10.4366 17.4209L10.4376 10.5691Z" stroke="#00B3AF" stroke-linecap="round" stroke-linejoin="round"/>
</svg>
