<svg width="33" height="32" viewBox="0 0 33 32" fill="none" xmlns="http://www.w3.org/2000/svg">
<path d="M26.5 5H6.5C4.84315 5 3.5 6.34315 3.5 8V26C3.5 27.6569 4.84315 29 6.5 29H26.5C28.1569 29 29.5 27.6569 29.5 26V8C29.5 6.34315 28.1569 5 26.5 5Z" stroke="#777777" stroke-width="2" stroke-linejoin="round"/>
<path d="M19 16C19.8284 16 20.5 15.3284 20.5 14.5C20.5 13.6716 19.8284 13 19 13C18.1716 13 17.5 13.6716 17.5 14.5C17.5 15.3284 18.1716 16 19 16Z" fill="#777777"/>
<path d="M24 16C24.8284 16 25.5 15.3284 25.5 14.5C25.5 13.6716 24.8284 13 24 13C23.1716 13 22.5 13.6716 22.5 14.5C22.5 15.3284 23.1716 16 24 16Z" fill="#777777"/>
<path d="M19 21C19.8284 21 20.5 20.3284 20.5 19.5C20.5 18.6716 19.8284 18 19 18C18.1716 18 17.5 18.6716 17.5 19.5C17.5 20.3284 18.1716 21 19 21Z" fill="#777777"/>
<path d="M24 21C24.8284 21 25.5 20.3284 25.5 19.5C25.5 18.6716 24.8284 18 24 18C23.1716 18 22.5 18.6716 22.5 19.5C22.5 20.3284 23.1716 21 24 21Z" fill="#777777"/>
<path d="M9 21C9.82843 21 10.5 20.3284 10.5 19.5C10.5 18.6716 9.82843 18 9 18C8.17157 18 7.5 18.6716 7.5 19.5C7.5 20.3284 8.17157 21 9 21Z" fill="#777777"/>
<path d="M14 21C14.8284 21 15.5 20.3284 15.5 19.5C15.5 18.6716 14.8284 18 14 18C13.1716 18 12.5 18.6716 12.5 19.5C12.5 20.3284 13.1716 21 14 21Z" fill="#777777"/>
<path d="M9 26C9.82843 26 10.5 25.3284 10.5 24.5C10.5 23.6716 9.82843 23 9 23C8.17157 23 7.5 23.6716 7.5 24.5C7.5 25.3284 8.17157 26 9 26Z" fill="#777777"/>
<path d="M14 26C14.8284 26 15.5 25.3284 15.5 24.5C15.5 23.6716 14.8284 23 14 23C13.1716 23 12.5 23.6716 12.5 24.5C12.5 25.3284 13.1716 26 14 26Z" fill="#777777"/>
<path d="M19 26C19.8284 26 20.5 25.3284 20.5 24.5C20.5 23.6716 19.8284 23 19 23C18.1716 23 17.5 23.6716 17.5 24.5C17.5 25.3284 18.1716 26 19 26Z" fill="#777777"/>
<path d="M8.5 3V5M24.5 3V5" stroke="#777777" stroke-width="2" stroke-linecap="round" stroke-linejoin="round"/>
<path d="M29.5 10H3.5" stroke="#777777" stroke-width="2" stroke-linejoin="round"/>
</svg>
