<svg width="16" height="17" viewBox="0 0 16 17" fill="none" xmlns="http://www.w3.org/2000/svg">
<path d="M12 12.5V14.5H4V12.5H3V14.5C3 14.7652 3.10536 15.0196 3.29289 15.2071C3.48043 15.3946 3.73478 15.5 4 15.5H12C12.2652 15.5 12.5196 15.3946 12.7071 15.2071C12.8946 15.0196 13 14.7652 13 14.5V12.5H12Z" fill="#002B5B"/>
<path d="M10.5 11L9.793 10.293L8.5 11.586V7.5H7.5V11.586L6.207 10.293L5.5 11L8 13.5L10.5 11ZM14 2.5V1.5H11V6.5H12V4.5H13.5V3.5H12V2.5H14ZM8.5 6.5H6.5V1.5H8.5C8.8977 1.5004 9.279 1.65856 9.56022 1.93978C9.84144 2.221 9.9996 2.6023 10 3V5C9.9996 5.3977 9.84144 5.779 9.56022 6.06022C9.279 6.34144 8.8977 6.4996 8.5 6.5ZM7.5 5.5H8.5C8.63261 5.5 8.75979 5.44732 8.85355 5.35355C8.94732 5.25979 9 5.13261 9 5V3C9 2.86739 8.94732 2.74021 8.85355 2.64645C8.75979 2.55268 8.63261 2.5 8.5 2.5H7.5V5.5ZM4.5 1.5H2V6.5H3V5H4.5C4.76509 4.9996 5.01922 4.89412 5.20667 4.70667C5.39412 4.51922 5.4996 4.26509 5.5 4V2.5C5.5 2.23478 5.39464 1.98043 5.20711 1.79289C5.01957 1.60536 4.76522 1.5 4.5 1.5ZM3 4V2.5H4.5L4.5005 4H3Z" fill="#002B5B"/>
</svg>
