<svg width="33" height="32" viewBox="0 0 33 32" fill="none" xmlns="http://www.w3.org/2000/svg">
<path d="M12.4786 27.5505H8.09196C6.47596 27.5505 5.16663 26.2412 5.16663 24.6252V16.0199C5.16761 15.393 5.30255 14.7735 5.56239 14.203C5.82224 13.6325 6.20099 13.1241 6.67329 12.7119L14.58 5.82519C15.1124 5.36203 15.7943 5.10693 16.5 5.10693C17.2056 5.10693 17.8875 5.36203 18.42 5.82519L26.3266 12.7132C26.7988 13.1253 27.1774 13.6335 27.4373 14.2037C27.6971 14.774 27.8321 15.3932 27.8333 16.0199V24.6252C27.8333 25.4008 27.5253 26.1447 26.977 26.6932C26.4286 27.2418 25.6849 27.5502 24.9093 27.5505H20.8866V18.7759C20.8866 17.5652 19.9053 16.5825 18.6933 16.5825H14.6733C13.4613 16.5825 12.48 17.5652 12.48 18.7759L12.4786 27.5505ZM12.4786 27.5505H20.888" stroke="#777777" stroke-width="2" stroke-linejoin="round"/>
</svg>
