<svg width="33" height="32" viewBox="0 0 33 32" fill="none" xmlns="http://www.w3.org/2000/svg">
<path d="M7.5 10C7.23478 10 6.98043 10.1054 6.79289 10.2929C6.60536 10.4804 6.5 10.7348 6.5 11C6.5 11.2652 6.60536 11.5196 6.79289 11.7071C6.98043 11.8946 7.23478 12 7.5 12H21.5C21.7652 12 22.0196 11.8946 22.2071 11.7071C22.3946 11.5196 22.5 11.2652 22.5 11C22.5 10.7348 22.3946 10.4804 22.2071 10.2929C22.0196 10.1054 21.7652 10 21.5 10H7.5ZM7.5 14C7.23478 14 6.98043 14.1054 6.79289 14.2929C6.60536 14.4804 6.5 14.7348 6.5 15V19C6.5 19.2652 6.60536 19.5196 6.79289 19.7071C6.98043 19.8946 7.23478 20 7.5 20H11.5C11.7652 20 12.0196 19.8946 12.2071 19.7071C12.3946 19.5196 12.5 19.2652 12.5 19V15C12.5 14.7348 12.3946 14.4804 12.2071 14.2929C12.0196 14.1054 11.7652 14 11.5 14H7.5ZM8.5 18V16H10.5V18H8.5ZM15.5 14C15.2348 14 14.9804 14.1054 14.7929 14.2929C14.6054 14.4804 14.5 14.7348 14.5 15C14.5 15.2652 14.6054 15.5196 14.7929 15.7071C14.9804 15.8946 15.2348 16 15.5 16H21.5C21.7652 16 22.0196 15.8946 22.2071 15.7071C22.3946 15.5196 22.5 15.2652 22.5 15C22.5 14.7348 22.3946 14.4804 22.2071 14.2929C22.0196 14.1054 21.7652 14 21.5 14H15.5ZM15.5 18C15.2348 18 14.9804 18.1054 14.7929 18.2929C14.6054 18.4804 14.5 18.7348 14.5 19C14.5 19.2652 14.6054 19.5196 14.7929 19.7071C14.9804 19.8946 15.2348 20 15.5 20H21.5C21.7652 20 22.0196 19.8946 22.2071 19.7071C22.3946 19.5196 22.5 19.2652 22.5 19C22.5 18.7348 22.3946 18.4804 22.2071 18.2929C22.0196 18.1054 21.7652 18 21.5 18H15.5ZM2.5 8C2.5 6.93913 2.92143 5.92172 3.67157 5.17157C4.42172 4.42143 5.43913 4 6.5 4H22.5C23.5609 4 24.5783 4.42143 25.3284 5.17157C26.0786 5.92172 26.5 6.93913 26.5 8C27.5609 8 28.5783 8.42143 29.3284 9.17157C30.0786 9.92172 30.5 10.9391 30.5 12V21C30.5 22.3261 29.9732 23.5979 29.0355 24.5355C28.0979 25.4732 26.8261 26 25.5 26H7.5C6.17392 26 4.90215 25.4732 3.96447 24.5355C3.02678 23.5979 2.5 22.3261 2.5 21V8ZM25.5 21C25.2348 21 24.9804 20.8946 24.7929 20.7071C24.6054 20.5196 24.5 20.2652 24.5 20V8C24.5 7.46957 24.2893 6.96086 23.9142 6.58579C23.5391 6.21071 23.0304 6 22.5 6H6.5C5.96957 6 5.46086 6.21071 5.08579 6.58579C4.71071 6.96086 4.5 7.46957 4.5 8V21C4.5 21.7956 4.81607 22.5587 5.37868 23.1213C5.94129 23.6839 6.70435 24 7.5 24H25.5C26.2956 24 27.0587 23.6839 27.6213 23.1213C28.1839 22.5587 28.5 21.7956 28.5 21V12C28.5 11.4696 28.2893 10.9609 27.9142 10.5858C27.5391 10.2107 27.0304 10 26.5 10V20C26.5 20.2652 26.3946 20.5196 26.2071 20.7071C26.0196 20.8946 25.7652 21 25.5 21Z" fill="white"/>
</svg>
