<svg width="33" height="32" viewBox="0 0 33 32" fill="none" xmlns="http://www.w3.org/2000/svg">
<path d="M31.9104 28.0458L28.7886 17.1052C28.6646 16.6711 28.2681 16.3719 27.8168 16.3719H21.0349C20.8706 16.3719 20.7758 16.1846 20.8711 16.0508C22.2258 14.1505 23.48 11.7251 23.48 9.25822C23.48 5.62383 20.5244 2.66699 16.8914 2.66699C13.2582 2.66699 10.3025 5.62383 10.3025 9.25822C10.3025 11.7251 11.5568 14.1505 12.9115 16.0508C13.0068 16.1846 12.912 16.3719 12.7477 16.3719H5.96568C5.51445 16.3719 5.11787 16.6711 4.99396 17.1052L1.87215 28.0458C1.78525 28.3506 1.84619 28.6787 2.03723 28.9318C2.22816 29.1849 2.52679 29.3337 2.84387 29.3337H30.9387C31.2557 29.3337 31.5544 29.1849 31.7453 28.9318C31.9363 28.6787 31.9973 28.3506 31.9104 28.0458ZM16.8914 4.688C19.4099 4.688 21.459 6.73822 21.459 9.25812C21.459 12.531 18.5025 15.9718 17.0326 17.4802C16.9551 17.5597 16.8277 17.5597 16.7501 17.4802C15.2801 15.9718 12.3235 12.531 12.3235 9.25812C12.3235 6.73822 14.3727 4.688 16.8914 4.688ZM14.737 18.3931C14.7927 18.3931 14.846 18.4165 14.884 18.4573C15.6118 19.2386 16.1525 19.7201 16.2234 19.7828C16.4144 19.9507 16.6528 20.0348 16.8914 20.0348C17.13 20.0348 17.3684 19.9507 17.5593 19.7828C17.6303 19.7201 18.1709 19.2386 18.8986 18.4573C18.9366 18.4165 18.9899 18.3931 19.0456 18.3931H26.9034C26.9927 18.3931 27.0712 18.4523 27.0957 18.5382L27.2995 19.2522C27.3212 19.3283 27.296 19.41 27.2352 19.4607L23.4981 22.575C23.4526 22.6129 23.3926 22.6287 23.3343 22.6181L6.6183 19.5789C6.502 19.5577 6.42932 19.4409 6.46176 19.3272L6.68699 18.5382C6.71151 18.4523 6.79 18.3931 6.87931 18.3931H14.737ZM9.76478 27.3125C9.65432 27.3125 9.56478 27.223 9.56478 27.1125V22.4085C9.56478 22.2837 9.67779 22.1894 9.80056 22.2117L20.9817 24.2447C21.1487 24.2751 21.2044 24.4865 21.074 24.5951L17.8686 27.2662C17.8327 27.2961 17.7874 27.3125 17.7406 27.3125H9.76478ZM5.79416 21.6667C5.82238 21.5678 5.92104 21.5064 6.02225 21.5248L7.37944 21.7715C7.47454 21.7888 7.54367 21.8716 7.54367 21.9683V27.1126C7.54367 27.2231 7.45413 27.3126 7.34367 27.3126H4.44821C4.31536 27.3126 4.21944 27.1855 4.25589 27.0578L5.79416 21.6667ZM21.5224 27.3125C21.3353 27.3125 21.2507 27.0787 21.3944 26.9589L27.7055 21.6995C27.8166 21.6069 27.9862 21.6592 28.0259 21.7983L29.5266 27.0577C29.5631 27.1854 29.4671 27.3125 29.3343 27.3125H21.5224Z" fill="#777777"/>
<path d="M19.6101 9.25774C19.6101 7.75083 18.3906 6.5249 16.8915 6.5249C15.3924 6.5249 14.1726 7.75083 14.1726 9.25774C14.1726 10.7645 15.3923 11.9906 16.8915 11.9906C18.3906 11.9906 19.6101 10.7645 19.6101 9.25774ZM16.1938 9.25774C16.1938 8.86522 16.5068 8.54591 16.8916 8.54591C17.2762 8.54591 17.5891 8.86512 17.5891 9.25774C17.5891 9.65037 17.2762 9.96957 16.8916 9.96957C16.5068 9.96947 16.1938 9.65026 16.1938 9.25774Z" fill="#777777"/>
</svg>
